HIERARCHY
ROOT joint_Root
{
	OFFSET 0.0 0.0 0.0
	CHANNELS 6 Xposition Yposition Zposition Zrotation Xrotation Yrotation 
	JOINT Hips
	{
		OFFSET -17.1583 93.1646 452.98
		CHANNELS 6 Xposition Yposition Zposition Zrotation Xrotation Yrotation 
		JOINT Spine
		{
			OFFSET 15.7357 0.0 0.0
			CHANNELS 6 Xposition Yposition Zposition Zrotation Xrotation Yrotation 
			JOINT Chest
			{
				OFFSET 8.98455 -0.406207 0.0
				CHANNELS 6 Xposition Yposition Zposition Zrotation Xrotation Yrotation 
				JOINT Neck
				{
					OFFSET 16.3773 0.0 0.0
					CHANNELS 6 Xposition Yposition Zposition Zrotation Xrotation Yrotation 
					JOINT Head
					{
						OFFSET 6.45672 0.0 0.0
						CHANNELS 6 Xposition Yposition Zposition Zrotation Xrotation Yrotation 
						End Site
						{
							OFFSET 0.0 0.0 0.0
						}
					}
				}
				JOINT Shoulder_L
				{
					OFFSET 12.9942 -0.242716 4.98039
					CHANNELS 6 Xposition Yposition Zposition Zrotation Xrotation Yrotation 
					JOINT UpperArm_L
					{
						OFFSET 5.34809 0.0 0.0
						CHANNELS 6 Xposition Yposition Zposition Zrotation Xrotation Yrotation 
						JOINT LowerArm_L
						{
							OFFSET 24.3286 1.87007e-05 0.0
							CHANNELS 6 Xposition Yposition Zposition Zrotation Xrotation Yrotation 
							JOINT Hand_L
							{
								OFFSET 22.2916 0.0 0.0
								CHANNELS 6 Xposition Yposition Zposition Zrotation Xrotation Yrotation 
								End Site
								{
									OFFSET 0.0 0.0 0.0
								}
							}
						}
					}
				}
				JOINT Shoulder_R
				{
					OFFSET 12.9945 -0.242716 -4.98039
					CHANNELS 6 Xposition Yposition Zposition Zrotation Xrotation Yrotation 
					JOINT UpperArm_R
					{
						OFFSET -5.34813 0.0 0.0
						CHANNELS 6 Xposition Yposition Zposition Zrotation Xrotation Yrotation 
						JOINT LowerArm_R
						{
							OFFSET -24.3289 0.000322201 0.0
							CHANNELS 6 Xposition Yposition Zposition Zrotation Xrotation Yrotation 
							JOINT Hand_R
							{
								OFFSET -22.2915 -0.000108084 0.0
								CHANNELS 6 Xposition Yposition Zposition Zrotation Xrotation Yrotation 
								End Site
								{
									OFFSET 0.0 0.0 0.0
								}
							}
						}
					}
				}
			}
		}
		JOINT UpperLeg_L
		{
			OFFSET -2.19248 -6.46944 0.0
			CHANNELS 6 Xposition Yposition Zposition Zrotation Xrotation Yrotation 
			JOINT LowerLeg_L
			{
				OFFSET 39.0811 0.0 -1.23785e-05
				CHANNELS 6 Xposition Yposition Zposition Zrotation Xrotation Yrotation 
				JOINT Foot_L
				{
					OFFSET 40.9854 0.0 -1.26872e-05
					CHANNELS 6 Xposition Yposition Zposition Zrotation Xrotation Yrotation 
					JOINT Toes_L
					{
						OFFSET 11.7543 0.0 0.0
						CHANNELS 6 Xposition Yposition Zposition Zrotation Xrotation Yrotation 
						End Site
						{
							OFFSET 0.0 0.0 0.0
						}
					}
				}
			}
		}
		JOINT UpperLeg_R
		{
			OFFSET -2.19251 6.46944 0.0
			CHANNELS 6 Xposition Yposition Zposition Zrotation Xrotation Yrotation 
			JOINT LowerLeg_R
			{
				OFFSET -39.0811 -0.00228153 -0.0401928
				CHANNELS 6 Xposition Yposition Zposition Zrotation Xrotation Yrotation 
				JOINT Foot_R
				{
					OFFSET -40.9854 0.0 0.0
					CHANNELS 6 Xposition Yposition Zposition Zrotation Xrotation Yrotation 
					JOINT Toes_R
					{
						OFFSET -11.7543 0.0 0.0
						CHANNELS 6 Xposition Yposition Zposition Zrotation Xrotation Yrotation 
						End Site
						{
							OFFSET 0.0 0.0 0.0
						}
					}
				}
			}
		}
	}
}
MOTION
Frames:	4
Frame Time:	0.0333333
0.000000 0.000000 0.000000 0.000000 0.000000 -0.000000 -2.420220 92.381400 -2.073980 86.807400 2.547650 6.570900 15.735700 0.000005 -0.000001 84.547100 85.854400 -83.126700 8.984550 -0.406207 -0.000000 0.500304 -0.877673 2.842600 16.377300 -0.000001 -0.000001 9.099580 1.562840 -1.327930 6.456720 -0.000001 -0.000000 -5.674860 0.505854 2.569620 12.994200 -0.242716 4.980390 -93.358900 9.634120 -70.674500 5.348090 -0.000007 -0.000001 -71.932800 18.961600 0.176587 24.328600 0.000019 0.000005 9.850970 23.013100 -23.950300 22.291600 -0.000001 0.000005 -7.107590 4.953580 8.298390 12.994500 -0.242716 -4.980390 87.362800 7.248120 -69.943700 -5.348130 -0.000001 -0.000004 -68.927900 32.527100 -5.626110 -24.328900 0.000322 -0.000009 1.284860 4.760880 -15.133900 -22.291500 -0.000108 -0.000004 -2.192500 5.295930 0.186339 -2.192480 -6.469440 -0.000000 -176.816000 4.531940 -1.118050 39.081100 -0.000007 -0.000012 0.290545 -0.623687 24.979100 40.985400 -0.000006 -0.000013 1.536570 4.911990 -73.006000 11.754300 -0.000000 0.000003 -0.000298 0.172500 -9.580030 -2.192510 6.469440 -0.000001 -173.875000 10.463800 -175.069000 -39.081100 -0.002282 -0.040193 0.104752 -0.358716 15.787800 -40.985400 0.000008 0.000006 3.834190 2.149450 -70.624500 -11.754300 -0.000006 -0.000006 -0.011163 0.279796 -5.203540
0.000000 0.000000 0.000000 0.000000 0.000000 -0.000000 -2.437250 92.384700 -2.088160 86.776100 2.365310 6.486640 15.735700 0.000005 -0.000001 84.426300 85.839800 -82.967900 8.984550 -0.406207 -0.000000 0.528340 -0.899955 2.918840 16.377300 -0.000001 -0.000001 9.003820 1.461230 -1.338080 6.456720 -0.000001 -0.000000 -5.778250 0.416264 2.010350 12.994200 -0.242716 4.980390 -93.431900 9.867830 -70.713600 5.348090 -0.000007 -0.000001 -71.359700 16.856900 0.524119 24.328600 0.000019 0.000005 10.676800 21.849000 -26.865200 22.291600 -0.000001 0.000005 -9.308030 4.901870 9.340460 12.994500 -0.242716 -4.980390 87.371100 7.206510 -69.896600 -5.348130 -0.000001 -0.000004 -68.822800 32.419300 -5.759300 -24.328900 0.000322 -0.000009 1.265070 4.672530 -15.179800 -22.291500 -0.000108 -0.000004 -2.034520 5.295850 0.188257 -2.192480 -6.469440 -0.000000 -176.763000 4.421650 -1.198510 39.081100 -0.000007 -0.000012 0.290187 -0.622786 24.983700 40.985400 -0.000006 -0.000013 1.499320 4.802000 -73.000900 11.754300 -0.000000 0.000003 -0.000301 0.172551 -9.577950 -2.192510 6.469440 -0.000001 -173.793000 10.310100 -175.125000 -39.081100 -0.002282 -0.040193 0.103694 -0.357080 15.699200 -40.985400 0.000008 0.000006 3.934980 2.145200 -70.515500 -11.754300 -0.000006 -0.000006 -0.010606 0.275778 -5.368010
0.000000 0.000000 0.000000 0.000000 0.000000 -0.000000 -2.476580 92.398400 -2.132570 86.713800 2.253360 6.330620 15.735700 0.000005 -0.000001 84.244200 85.839500 -82.729100 8.984550 -0.406207 -0.000000 0.527162 -0.929895 3.032450 16.377300 -0.000001 -0.000001 8.780910 1.163020 -1.419860 6.456720 -0.000001 -0.000000 -6.076240 0.083642 1.207760 12.994200 -0.242716 4.980390 -93.525300 10.084100 -70.616200 5.348090 -0.000007 -0.000001 -70.694000 13.824600 1.072970 24.328600 0.000019 0.000005 13.597200 22.098100 -32.735300 22.291600 -0.000001 0.000005 -11.985600 4.871090 9.953870 12.994500 -0.242716 -4.980390 87.370200 7.174250 -69.807600 -5.348130 -0.000001 -0.000004 -68.631100 32.342600 -5.918870 -24.328900 0.000322 -0.000009 1.285290 4.711710 -15.289000 -22.291500 -0.000108 -0.000004 -2.087610 5.295020 0.211643 -2.192480 -6.469440 -0.000000 -176.653000 4.355100 -1.363540 39.081100 -0.000007 -0.000012 0.287804 -0.618232 24.963900 40.985400 -0.000006 -0.000013 1.458290 4.771470 -72.992000 11.754300 -0.000000 0.000003 -0.000281 0.172232 -9.590910 -2.192510 6.469440 -0.000001 -173.664000 10.108700 -175.284000 -39.081100 -0.002282 -0.040193 0.100208 -0.346535 15.619300 -40.985400 0.000008 0.000006 3.821500 2.140670 -70.434900 -11.754300 -0.000006 -0.000006 -0.010887 0.277815 -5.284630
0.000000 0.000000 0.000000 0.000000 0.000000 -0.000000 -2.532140 92.397700 -2.178820 86.649800 2.169520 6.123200 15.735700 0.000005 -0.000001 84.345400 85.846200 -82.780700 8.984550 -0.406207 -0.000000 0.515742 -0.917268 3.131250 16.377300 -0.000001 -0.000001 8.465270 0.620760 -1.576040 6.456720 -0.000001 -0.000000 -6.642060 -0.666858 0.126628 12.994200 -0.242716 4.980390 -93.594800 10.135900 -70.354500 5.348090 -0.000007 -0.000001 -70.001200 10.786300 1.540320 24.328600 0.000019 0.000005 18.213000 22.052100 -41.222800 22.291600 -0.000001 0.000005 -13.587400 4.844230 10.474100 12.994500 -0.242716 -4.980390 87.358900 7.147630 -69.659000 -5.348130 -0.000001 -0.000004 -68.454400 32.294100 -6.041270 -24.328900 0.000322 -0.000009 1.276650 4.625620 -15.459700 -22.291500 -0.000108 -0.000004 -1.991890 5.296250 0.177325 -2.192480 -6.469440 -0.000000 -176.549000 4.430360 -1.648750 39.081100 -0.000007 -0.000012 0.292147 -0.625026 25.052700 40.985400 -0.000006 -0.000013 1.388420 4.667420 -73.027900 11.754300 -0.000000 0.000003 -0.000096 0.169220 -9.713270 -2.192510 6.469440 -0.000001 -173.511000 10.012700 -175.544000 -39.081100 -0.002282 -0.040193 0.099241 -0.342999 15.622600 -40.985400 0.000008 0.000006 3.754630 2.121420 -70.349100 -11.754300 -0.000006 -0.000006 -0.010577 0.275568 -5.376590
